<?xml version="1.0" encoding="iso-8859-1"?>
<!-- Generator: Adobe Illustrator 18.0.0, SVG Export Plug-In . SVG Version: 6.00 Build 0)  -->
<!DOCTYPE svg PUBLIC "-//W3C//DTD SVG 1.1//EN" "http://www.w3.org/Graphics/SVG/1.1/DTD/svg11.dtd">
<svg version="1.1" id="Capa_1" xmlns="http://www.w3.org/2000/svg" xmlns:xlink="http://www.w3.org/1999/xlink" x="0px" y="0px"
	 viewBox="0 0 63.6 63.6" style="enable-background:new 0 0 63.6 63.6;" xml:space="preserve">
<path d="M61.757,0.401H44.069c-0.637,0-1.139,0.296-1.345,0.793c-0.205,0.497-0.06,1.062,0.391,1.51l3.366,3.366L35.356,17.196
	c-0.348,0.347-0.539,0.81-0.539,1.303c0,0.494,0.191,0.957,0.539,1.303l8.842,8.841c0.347,0.348,0.811,0.54,1.304,0.54
	s0.957-0.192,1.303-0.539L57.931,17.52l3.365,3.365c0.397,0.399,0.791,0.482,1.051,0.482c0.622,0,1.253-0.493,1.253-1.435V2.245
	C63.6,1.228,62.772,0.401,61.757,0.401z M61.6,18.36l-2.366-2.366c-0.695-0.696-1.911-0.695-2.606,0L45.502,27.119l-8.62-8.62
	L48.007,7.375c0.348-0.347,0.539-0.81,0.539-1.303c0-0.494-0.191-0.957-0.539-1.303l-2.366-2.367H61.6V18.36z M17.118,6.071
	l3.366-3.366c0.45-0.449,0.596-1.014,0.391-1.511c-0.206-0.497-0.708-0.793-1.345-0.793H1.843C0.827,0.401,0,1.228,0,2.245v17.688
	c0,0.323,0.071,0.606,0.213,0.84c0.225,0.373,0.613,0.595,1.041,0.595c0.26,0,0.652-0.083,1.049-0.481l3.366-3.366l11.125,11.124
	c0.347,0.348,0.811,0.54,1.304,0.54s0.957-0.192,1.303-0.539l8.843-8.842c0.348-0.347,0.539-0.81,0.539-1.304
	c0-0.493-0.191-0.956-0.539-1.303L17.118,6.071z M18.098,27.119L6.973,15.995c-0.348-0.348-0.811-0.539-1.304-0.539
	c-0.492,0-0.955,0.191-1.303,0.539L2,18.36V2.401h15.959l-2.367,2.367c-0.717,0.718-0.717,1.887,0.001,2.605l11.125,11.125
	L18.098,27.119z M19.401,34.956c-0.695-0.695-1.913-0.695-2.606,0L5.67,46.081l-3.366-3.366c-0.398-0.398-0.791-0.482-1.051-0.482
	C0.631,42.232,0,42.726,0,43.668v17.688c0,1.016,0.827,1.843,1.843,1.843H19.53c0.637,0,1.139-0.296,1.345-0.792
	c0.205-0.496,0.06-1.061-0.391-1.511l-3.366-3.366l11.125-11.125c0.348-0.347,0.539-0.81,0.539-1.304
	c0-0.493-0.191-0.956-0.539-1.303L19.401,34.956z M19.53,61.199c0.002,0,0.004,0,0.006,0l-0.006,1V61.199z M15.592,56.227
	c-0.716,0.718-0.716,1.886,0.001,2.605l2.366,2.366H2V45.24l2.366,2.366c0.695,0.695,1.911,0.694,2.606,0L18.098,36.48l8.62,8.62
	L15.592,56.227z M62.347,42.232c-0.26,0-0.652,0.083-1.05,0.481l-3.366,3.367L46.806,34.956c-0.695-0.695-1.913-0.695-2.606,0
	l-8.843,8.842c-0.348,0.348-0.539,0.811-0.539,1.303c0,0.494,0.191,0.957,0.539,1.303l11.125,11.125l-3.366,3.366
	c-0.45,0.45-0.596,1.015-0.391,1.511c0.206,0.496,0.708,0.792,1.345,0.792h17.688c1.016,0,1.843-0.827,1.843-1.843V43.668
	C63.6,42.726,62.969,42.232,62.347,42.232z M61.6,61.198H45.641l2.366-2.366c0.719-0.719,0.719-1.888,0-2.606L36.882,45.101
	l8.62-8.62l11.125,11.125c0.695,0.693,1.911,0.696,2.606,0L61.6,45.24V61.198z"/>
<g>
</g>
<g>
</g>
<g>
</g>
<g>
</g>
<g>
</g>
<g>
</g>
<g>
</g>
<g>
</g>
<g>
</g>
<g>
</g>
<g>
</g>
<g>
</g>
<g>
</g>
<g>
</g>
<g>
</g>
</svg>
